<svg width="440" height="472" viewBox="0 0 440 472" fill="none" xmlns="http://www.w3.org/2000/svg">
<path d="M432.518 197.235C430.783 194.83 427.998 193.403 425.03 193.399H260.61L300.918 178.842C305.526 177.172 309.282 173.743 311.362 169.306C313.444 164.87 313.677 159.788 312.011 155.18L299.485 120.381L416.847 77.8641C422.608 75.7787 427.303 71.4922 429.903 65.9446C432.503 60.3989 432.796 54.0483 430.714 48.2872L421.469 22.2225C419.383 16.4629 415.096 11.7685 409.547 9.16922C404 6.5697 397.648 6.27699 391.886 8.35856L274.336 50.8754L261.763 16.0762C260.094 11.4682 256.663 7.71329 252.226 5.63354C247.788 3.55197 242.705 3.319 238.097 4.98463L151.151 36.2716C146.542 37.9411 142.787 41.3707 140.706 45.8072C138.624 50.2437 138.391 55.3256 140.057 59.9331L188.223 193.399H166.174C163.722 193.399 161.371 194.373 159.637 196.106C157.904 197.839 156.929 200.191 156.929 202.642V211.885H18.2571C15.1235 211.879 12.1999 213.464 10.4915 216.09C8.79082 218.711 8.52886 222.015 9.79813 224.871L37.5325 287.909C44.5645 303.891 56.1089 317.476 70.7463 326.998C85.3856 336.52 102.485 341.565 119.95 341.517H126.329C136.694 341.517 146.359 346.747 152.028 355.424C157.696 364.099 158.601 375.049 154.435 384.538C150.267 394.027 141.592 400.773 131.367 402.473L109.273 406.17C107.108 406.509 105.134 407.607 103.704 409.267C102.273 410.925 101.478 413.037 101.461 415.228V461.442C101.461 463.894 102.435 466.245 104.169 467.978C105.902 469.711 108.254 470.685 110.706 470.685H203.154C205.605 470.685 207.957 469.711 209.691 467.978C211.424 466.245 212.398 463.894 212.398 461.442C212.398 451.535 217.686 442.383 226.266 437.428C234.846 432.476 245.42 432.476 254 437.428C262.58 442.383 267.867 451.535 267.867 461.442C267.867 463.894 268.842 466.245 270.575 467.978C272.309 469.711 274.66 470.685 277.112 470.685H369.56C372.012 470.685 374.364 469.711 376.097 467.978C377.83 466.245 378.805 463.894 378.805 461.442V415.228C378.836 413.02 378.073 410.873 376.658 409.178C375.242 407.482 373.264 406.35 371.085 405.986L352.18 402.843C344.148 401.522 336.845 397.4 331.566 391.207C326.284 385.015 323.37 377.152 323.336 369.015C323.336 361.661 326.258 354.607 331.46 349.409C336.66 344.207 343.715 341.286 351.07 341.286C352.785 341.29 354.468 340.816 355.93 339.919C357.39 339.02 358.572 337.734 359.345 336.203L394.105 266.884C400.289 265.831 406.073 263.127 410.85 259.061C415.626 254.994 419.214 249.714 421.238 243.777L433.904 205.835C434.905 202.918 434.385 199.695 432.517 197.239L432.518 197.235ZM397.989 25.8758C399.146 25.4445 400.429 25.4965 401.55 26.0164C402.669 26.5383 403.536 27.4856 403.952 28.6487L413.197 54.7133C413.659 55.8379 413.659 57.1011 413.197 58.2256C412.675 59.3463 411.727 60.2128 410.562 60.6287L293.2 103.007L280.627 68.2542L397.989 25.8758ZM244.387 22.4098L294.635 161.515L207.778 192.848L157.442 53.7426L244.387 22.4098ZM403.629 237.676C402.528 240.934 400.432 243.765 397.64 245.771C394.845 247.777 391.492 248.858 388.052 248.86C386.338 248.856 384.655 249.329 383.193 250.227C381.733 251.126 380.551 252.412 379.778 253.943L345.11 323.262C333.99 324.708 323.776 330.146 316.369 338.562C308.962 346.981 304.869 357.802 304.849 369.013C304.815 381.564 309.254 393.718 317.369 403.296C325.483 412.874 336.744 419.25 349.132 421.281L360.319 423.13V452.198H285.433C282.583 438.16 273.381 426.238 260.523 419.92C247.665 413.602 232.604 413.602 219.746 419.92C206.888 426.238 197.685 438.161 194.835 452.198H119.95V423.037L134.325 420.68C151.197 418.441 165.713 407.64 172.701 392.126C179.688 376.609 178.157 358.584 168.65 344.47C159.144 330.355 143.013 322.16 126.005 322.799H119.95C106.108 322.801 92.5619 318.778 80.9657 311.223C69.3691 303.665 60.2209 292.899 54.6356 280.236L32.448 230.37H166.175C168.626 230.37 170.978 229.395 172.712 227.662C174.445 225.929 175.42 223.578 175.42 221.127V211.884H412.224L403.629 237.676Z" fill="white"/>
<path d="M54.1905 174.915L132.774 184.157H133.837C137.14 184.348 140.293 182.761 142.109 179.996C143.925 177.231 144.127 173.707 142.64 170.753C141.154 167.8 138.203 165.862 134.9 165.672L56.3167 156.429C53.0136 156.049 49.7585 157.459 47.7789 160.13C45.799 162.799 45.3926 166.322 46.7158 169.373C48.039 172.423 50.8874 174.535 54.1905 174.915Z" fill="#0085FF"/>
<path d="M118.678 140.438C120.342 141.816 122.433 142.567 124.594 142.563C127.148 142.569 129.591 141.518 131.341 139.658C133.094 137.8 133.997 135.3 133.839 132.751C133.683 130.203 132.478 127.833 130.511 126.204L102.777 103.097C100.889 101.527 98.455 100.773 96.0107 100.998C93.5666 101.223 91.3113 102.411 89.7415 104.298C88.1717 106.185 87.4168 108.619 87.6421 111.063C87.8675 113.507 89.0558 115.761 90.9433 117.331L118.678 140.438Z" fill="#0085FF"/>
<path d="M367.775 151.805L344.663 156.427C341.36 156.748 338.48 158.808 337.107 161.828C335.734 164.849 336.079 168.373 338.009 171.071C339.939 173.77 343.163 175.234 346.466 174.912C347.065 174.98 347.669 174.98 348.268 174.912L371.38 170.291C374.683 169.648 377.391 167.291 378.485 164.108C379.579 160.927 378.892 157.403 376.683 154.865C374.473 152.327 371.078 151.162 367.775 151.805Z" fill="#0085FF"/>
</svg>
